{"accessors":[{"bufferView":0,"componentType":5125,"count":772752,"type":"SCALAR"},{"bufferView":1,"componentType":5126,"count":140112,"max":[1,0.44258394837379456,0.66930204629898071],"min":[-1,-0.44258391857147217,-0.66930210590362549],"type":"VEC3"},{"bufferView":2,"componentType":5126,"count":140112,"type":"VEC3"},{"bufferView":3,"componentType":5126,"count":140112,"type":"VEC2"},{"bufferView":4,"componentType":5125,"count":20736,"type":"SCALAR"},{"bufferView":5,"componentType":5126,"count":3524,"max":[0.71515476703643799,0.32752722501754761,0],"min":[0,0,-0.46340438723564148],"type":"VEC3"},{"bufferView":6,"componentType":5126,"count":3524,"type":"VEC3"},{"bufferView":7,"componentType":5126,"count":3524,"type":"VEC2"},{"bufferView":8,"componentType":5125,"count":7800,"type":"SCALAR"},{"bufferView":9,"componentType":5126,"count":1457,"max":[0,0.30207759141921997,0.226435586810112],"min":[-0.42887938022613525,0,-0.10440327227115631],"type":"VEC3"},{"bufferView":10,"componentType":5126,"count":1457,"type":"VEC3"},{"bufferView":11,"componentType":5126,"count":1457,"type":"VEC2"}],"asset":{"generator":"Substance Painter 2017.4.1","version":"2.0"},"bufferViews":[{"buffer":0,"byteLength":3091008,"byteOffset":0,"target":34963},{"buffer":0,"byteLength":1681344,"byteOffset":3091008,"target":34962},{"buffer":0,"byteLength":1681344,"byteOffset":4772352,"target":34962},{"buffer":0,"byteLength":1120896,"byteOffset":6453696,"target":34962},{"buffer":0,"byteLength":82944,"byteOffset":7574592,"target":34963},{"buffer":0,"byteLength":42288,"byteOffset":7657536,"target":34962},{"buffer":0,"byteLength":42288,"byteOffset":7699824,"target":34962},{"buffer":0,"byteLength":28192,"byteOffset":7742112,"target":34962},{"buffer":0,"byteLength":31200,"byteOffset":7770304,"target":34963},{"buffer":0,"byteLength":17484,"byteOffset":7801504,"target":34962},{"buffer":0,"byteLength":17484,"byteOffset":7818988,"target":34962},{"buffer":0,"byteLength":11656,"byteOffset":7836472,"target":34962}],"buffers":[{"byteLength":7848128,"uri":"PBR - Metallic Roughness.bin"}],"images":[{"uri":"clear_buttons_mat_baseColor.png"},{"uri":"clear_buttons_mat_occlusionRoughnessMetallic.png"},{"uri":"clear_buttons_mat_normal.png"},{"uri":"xbox_elite_mat_baseColor.png"},{"uri":"xbox_elite_mat_occlusionRoughnessMetallic.png"},{"uri":"xbox_elite_mat_normal.png"}],"materials":[{"alphaMode":"BLEND","name":"clear_buttons_mat","normalTexture":{"index":2},"occlusionTexture":{"index":1},"pbrMetallicRoughness":{"baseColorTexture":{"index":0},"metallicRoughnessTexture":{"index":1}}},{"alphaMode":"OPAQUE","name":"xbox_elite_mat","normalTexture":{"index":5},"occlusionTexture":{"index":4},"pbrMetallicRoughness":{"baseColorTexture":{"index":3},"metallicRoughnessTexture":{"index":4}}}],"meshes":[{"name":"xbox_elite_controller","primitives":[{"attributes":{"NORMAL":2,"POSITION":1,"TEXCOORD_0":3},"indices":0,"material":1,"mode":4}]},{"name":"clear_Buttons","primitives":[{"attributes":{"NORMAL":6,"POSITION":5,"TEXCOORD_0":7},"indices":4,"material":0,"mode":4}]},{"name":"D_Pad","primitives":[{"attributes":{"NORMAL":10,"POSITION":9,"TEXCOORD_0":11},"indices":8,"material":1,"mode":4}]}],"nodes":[{"children":[1,3,5],"name":"root","scale":[8.0712566375732422,8.0712566375732422,8.0712566375732422],"translation":[-2.86102294921875e-06,3.6346285343170166,0.27701616287231445]},{"children":[2],"name":"xbox_elite_controller"},{"mesh":0,"name":"xbox_elite_controller"},{"children":[4],"name":"clear_Buttons"},{"mesh":1,"name":"clear_Buttons"},{"children":[6],"name":"D_Pad"},{"mesh":2,"name":"D_Pad"}],"samplers":[{"magFilter":9729,"minFilter":9985,"wrapS":10497,"wrapT":10497}],"scene":0,"scenes":[{"name":"Scene","nodes":[0]}],"textures":[{"sampler":0,"source":0},{"sampler":0,"source":1},{"sampler":0,"source":2},{"sampler":0,"source":3},{"sampler":0,"source":4},{"sampler":0,"source":5}]}
